<svg width="25" height="25" viewBox="0 0 22 21" fill="none" xmlns="http://www.w3.org/2000/svg">
<path fill-rule="evenodd" clip-rule="evenodd" d="M13.5169 16.0994L11.1337 13.8417L8.73832 16.1109C8.54469 16.2942 8.33775 16.4619 8.12023 16.6123L9.99385 18.3871C10.5461 18.9103 11.4417 18.9104 11.9941 18.3872C11.9942 18.3871 11.9941 18.3872 11.9941 18.3872L13.9898 16.4966C13.8251 16.3742 13.667 16.2414 13.5169 16.0994ZM15.3917 15.1685C15.9249 15.5087 16.5527 15.6915 17.2098 15.6915H17.6111L13.3799 19.6999C12.0622 20.9481 9.92574 20.9481 8.60811 19.6999L4.38889 15.7031H5.04539C5.63941 15.7031 6.20936 15.5537 6.70723 15.2738C6.93968 15.1431 7.15642 14.9839 7.35255 14.7982L10.696 11.6308C10.9298 11.4093 11.3375 11.4087 11.5714 11.6308L14.9027 14.7867C15.0542 14.9301 15.2179 15.0577 15.3917 15.1685Z" fill="#FFFFFF"/>
<path fill-rule="evenodd" clip-rule="evenodd" d="M5.04521 4.30862L4.38889 4.92998L5.04521 4.92997C5.63929 4.92997 6.20929 5.07927 6.70719 5.35907C6.9396 5.48968 7.1563 5.64872 7.35241 5.83428L10.6959 9.00024C10.9367 9.22831 11.3299 9.22916 11.5713 8.99998L14.9027 5.84582C15.0541 5.70249 15.2179 5.57499 15.3917 5.46419C15.9249 5.12422 16.5527 4.94151 17.2098 4.94151H17.6111L13.3799 0.93566C12.0621 -0.311887 9.92565 -0.311887 8.60799 0.93566L5.04521 4.30862ZM13.9897 4.13691L11.9942 2.24765C11.9942 2.24763 11.9942 2.24767 11.9942 2.24765C11.4416 1.72461 10.546 1.72471 9.99381 2.24755L8.12019 4.02135C8.33769 4.17167 8.54423 4.33882 8.73784 4.52203L11.1335 6.79048L13.5168 4.53394C13.6669 4.39196 13.8251 4.25925 13.9897 4.13691ZM12.0818 7.68842C12.0815 7.68813 12.0821 7.68871 12.0818 7.68842Z" fill="#FFFFFF"/>
<path fill-rule="evenodd" clip-rule="evenodd" d="M15.351 13.9144C15.7525 14.2751 16.3088 14.482 16.8771 14.482H17.9763C18.0372 14.482 18.0948 14.4939 18.148 14.5131L20.5656 12.343C21.8115 11.2246 21.8115 9.41149 20.5656 8.29312L18.148 6.12302C18.0948 6.14215 18.0372 6.1541 17.9763 6.1541H16.8771C16.3088 6.1541 15.7525 6.36101 15.351 6.72172L12.2013 9.54904C11.9066 9.81363 11.5192 9.946 11.1323 9.946C10.745 9.946 10.358 9.81363 10.0633 9.5493L6.90175 6.71138C6.50019 6.35059 5.94389 6.14377 5.37561 6.14377H4.02402C3.96637 6.14377 3.9125 6.13157 3.86164 6.11438L1.43444 8.29312C0.18852 9.4115 0.18852 11.2246 1.43444 12.343L3.86154 14.5217C3.91249 14.5045 3.96637 14.4923 4.02402 14.4923H5.37561C5.94389 14.4923 6.50019 14.2855 6.90175 13.9247L10.063 11.0871C10.3487 10.8309 10.7405 10.7027 11.1323 10.7027C11.5241 10.7027 11.9159 10.8309 12.2013 11.0873L15.351 13.9144ZM13.9649 10.3182L16.6612 12.7383C16.7151 12.7867 16.8003 12.8187 16.8771 12.8187H17.4152L19.2554 11.1669C19.2554 11.1669 19.2553 11.1669 19.2554 11.1669C19.7776 10.6981 19.7776 9.93806 19.2554 9.46922L17.4152 7.81736H16.8771C16.8003 7.81736 16.7156 7.84898 16.6617 7.89741L13.9649 10.3182ZM8.29928 10.3181L5.59152 7.88749C5.53781 7.83923 5.45259 7.80703 5.37561 7.80703H4.59641L2.74467 9.46923C2.22237 9.93806 2.22237 10.6981 2.74467 11.1669L4.59632 12.829H5.37561C5.45261 12.829 5.5373 12.7973 5.59106 12.7491L8.29928 10.3181Z" fill="#FFFFFF"/>
</svg>
