<svg width="25" height="25" viewBox="0 0 18 21" fill="none" xmlns="http://www.w3.org/2000/svg">
<path d="M2.3 20.5C1.8 20.5 1.375 20.325 1.025 19.975C0.675 19.625 0.5 19.2 0.5 18.7V9.3C0.5 8.8 0.675 8.375 1.025 8.025C1.375 7.675 1.8 7.5 2.3 7.5H5.875V9H2.3C2.23333 9 2.16667 9.03333 2.1 9.1C2.03333 9.16667 2 9.23333 2 9.3V18.7C2 18.7667 2.03333 18.8333 2.1 18.9C2.16667 18.9667 2.23333 19 2.3 19H15.7C15.7667 19 15.8333 18.9667 15.9 18.9C15.9667 18.8333 16 18.7667 16 18.7V9.3C16 9.23333 15.9667 9.16667 15.9 9.1C15.8333 9.03333 15.7667 9 15.7 9H12.125V7.5H15.7C16.2 7.5 16.625 7.675 16.975 8.025C17.325 8.375 17.5 8.8 17.5 9.3V18.7C17.5 19.2 17.325 19.625 16.975 19.975C16.625 20.325 16.2 20.5 15.7 20.5H2.3ZM9 15.65L5.35 12L6.4 10.95L8.25 12.775V0.75H9.75V12.775L11.6 10.95L12.65 12L9 15.65Z" fill="#FFFFFF"/>
</svg>
